<?xml version="1.0" encoding="UTF-8"?><svg id="Layer_2" xmlns="http://www.w3.org/2000/svg" viewBox="0 0 400.77 76.72"><defs><style>.cls-1,.cls-2,.cls-3,.cls-4{fill:#fff;}.cls-2{font-size:6.88px;}.cls-2,.cls-3,.cls-4{font-family:HelveticaNeue-Medium, 'Helvetica Neue';}.cls-3{font-size:13.41px;}.cls-4{font-size:9.27px;}.cls-5{fill:none;stroke:#fff;stroke-miterlimit:10;stroke-width:1.35px;}</style></defs><g id="Layer_2-2"><rect class="cls-5" x="45.41" y=".68" width="27.86" height="27.86" rx="3.96" ry="3.96"/><text class="cls-3" transform="translate(53.2 19.32)"><tspan x="0" y="0">W</tspan></text><rect class="cls-5" x="45.3" y="32.32" width="27.86" height="27.86" rx="3.96" ry="3.96"/><text class="cls-3" transform="translate(54.85 50.97)"><tspan x="0" y="0">S</tspan></text><rect class="cls-5" x="76.75" y="32.32" width="27.86" height="27.86" rx="3.96" ry="3.96"/><text class="cls-3" transform="translate(86.29 50.97)"><tspan x="0" y="0">D</tspan></text><rect class="cls-5" x="342.75" y="32.32" width="27.86" height="27.86" rx="3.96" ry="3.96"/><text class="cls-4" transform="translate(347.41 49.32)"><tspan x="0" y="0">ESC</tspan></text><text class="cls-2" transform="translate(0 74.68)"><tspan x="0" y="0">Move around with WASD or arrow keys</tspan></text><text class="cls-2" transform="translate(314.74 74.75)"><tspan x="0" y="0">ESC key to exit from space</tspan></text><text class="cls-2" transform="translate(167.72 74.75)"><tspan x="0" y="0">Click anywhere to enter space</tspan></text><rect class="cls-5" x="14.22" y="32.32" width="27.86" height="27.86" rx="3.96" ry="3.96"/><text class="cls-3" transform="translate(23.77 50.97)"><tspan x="0" y="0">A</tspan></text><g><rect class="cls-5" x="201.9" y="32.32" width="27.86" height="27.86" rx="3.96" ry="3.96"/><g><polygon class="cls-1" points="212.57 39.93 212.55 51.84 212.55 51.84 216.12 47.88 216.13 47.88 221.46 47.86 221.46 47.86 212.57 39.93 212.57 39.93"/><rect class="cls-1" x="215.85" y="45.37" width="1.49" height="7.14" transform="translate(-1.13 92.59) rotate(-24.07)"/></g></g></g></svg>