{
    "asset" : {
        "generator" : "Khronos glTF Blender I/O v1.3.48",
        "version" : "2.0"
    },
    "scene" : 0,
    "scenes" : [
        {
            "name" : "Scene",
            "nodes" : [
                0,
                1
            ]
        }
    ],
    "nodes" : [
        {
            "mesh" : 0,
            "name" : "Vase-2-V3",
            "scale" : [
                0.30206096172332764,
                0.30206096172332764,
                0.30206096172332764
            ],
            "translation" : [
                12.208377838134766,
                186.31338500976562,
                -0.09614779055118561
            ]
        },
        {
            "mesh" : 1,
            "name" : "Cube",
            "scale" : [
                25.712505340576172,
                -92.66936492919922,
                25.712505340576172
            ],
            "translation" : [
                11.518521308898926,
                93.32073974609375,
                0.10422158241271973
            ]
        }
    ],
    "materials" : [
        {
            "doubleSided" : true,
            "emissiveFactor" : [
                0.08282581716775894,
                0.08282581716775894,
                0.08282581716775894
            ],
            "name" : "Material.001",
            "occlusionTexture" : {
                "index" : 0,
                "texCoord" : 0
            },
            "pbrMetallicRoughness" : {
                "baseColorTexture" : {
                    "index" : 1,
                    "texCoord" : 0
                },
                "metallicFactor" : 0,
                "roughnessFactor" : 0
            }
        },
        {
            "doubleSided" : true,
            "emissiveFactor" : [
                0.07929233461618423,
                0.07929233461618423,
                0.07929233461618423
            ],
            "name" : "Material.002",
            "occlusionTexture" : {
                "index" : 2,
                "texCoord" : 0
            },
            "pbrMetallicRoughness" : {
                "baseColorFactor" : [
                    0.800000011920929,
                    0.800000011920929,
                    0.800000011920929,
                    1
                ],
                "metallicFactor" : 0,
                "roughnessFactor" : 0
            }
        }
    ],
    "meshes" : [
        {
            "name" : "Vase-2-V3",
            "primitives" : [
                {
                    "attributes" : {
                        "POSITION" : 0,
                        "NORMAL" : 1,
                        "TEXCOORD_0" : 2
                    },
                    "indices" : 3,
                    "material" : 0
                }
            ]
        },
        {
            "name" : "Cube",
            "primitives" : [
                {
                    "attributes" : {
                        "POSITION" : 4,
                        "NORMAL" : 5,
                        "TEXCOORD_0" : 6
                    },
                    "indices" : 7,
                    "material" : 1
                }
            ]
        }
    ],
    "textures" : [
        {
            "source" : 0
        },
        {
            "source" : 0
        },
        {
            "source" : 1
        }
    ],
    "images" : [
        {
            "mimeType" : "image/png",
            "name" : "mapi",
            "uri" : "textures/mapi.png"
        },
        {
            "mimeType" : "image/png",
            "name" : "boxy",
            "uri" : "textures/boxy.png"
        }
    ],
    "accessors" : [
        {
            "bufferView" : 0,
            "componentType" : 5126,
            "count" : 40326,
            "max" : [
                33.02921676635742,
                180.002685546875,
                33.02921676635742
            ],
            "min" : [
                -33.02921676635742,
                -0.06910833716392517,
                -33.02921676635742
            ],
            "type" : "VEC3"
        },
        {
            "bufferView" : 1,
            "componentType" : 5126,
            "count" : 40326,
            "type" : "VEC3"
        },
        {
            "bufferView" : 2,
            "componentType" : 5126,
            "count" : 40326,
            "type" : "VEC2"
        },
        {
            "bufferView" : 3,
            "componentType" : 5123,
            "count" : 40410,
            "type" : "SCALAR"
        },
        {
            "bufferView" : 4,
            "componentType" : 5126,
            "count" : 24,
            "max" : [
                1,
                1,
                1
            ],
            "min" : [
                -1,
                -1,
                -1
            ],
            "type" : "VEC3"
        },
        {
            "bufferView" : 5,
            "componentType" : 5126,
            "count" : 24,
            "type" : "VEC3"
        },
        {
            "bufferView" : 6,
            "componentType" : 5126,
            "count" : 24,
            "type" : "VEC2"
        },
        {
            "bufferView" : 7,
            "componentType" : 5123,
            "count" : 36,
            "type" : "SCALAR"
        }
    ],
    "bufferViews" : [
        {
            "buffer" : 0,
            "byteLength" : 483912,
            "byteOffset" : 0
        },
        {
            "buffer" : 0,
            "byteLength" : 483912,
            "byteOffset" : 483912
        },
        {
            "buffer" : 0,
            "byteLength" : 322608,
            "byteOffset" : 967824
        },
        {
            "buffer" : 0,
            "byteLength" : 80820,
            "byteOffset" : 1290432
        },
        {
            "buffer" : 0,
            "byteLength" : 288,
            "byteOffset" : 1371252
        },
        {
            "buffer" : 0,
            "byteLength" : 288,
            "byteOffset" : 1371540
        },
        {
            "buffer" : 0,
            "byteLength" : 192,
            "byteOffset" : 1371828
        },
        {
            "buffer" : 0,
            "byteLength" : 72,
            "byteOffset" : 1372020
        }
    ],
    "buffers" : [
        {
            "byteLength" : 1372092,
            "uri" : "suebox.bin"
        }
    ]
}
